<?xml version="1.0" encoding="iso-8859-1"?>
<!-- Generator: Adobe Illustrator 19.0.0, SVG Export Plug-In . SVG Version: 6.00 Build 0)  -->
<svg version="1.1" id="Capa_1" xmlns="http://www.w3.org/2000/svg" xmlns:xlink="http://www.w3.org/1999/xlink" x="0px" y="0px"
	 viewBox="0 0 511.998 511.998" style="enable-background:new 0 0 511.998 511.998;" xml:space="preserve">
<g>
	<g>
		<path d="M482,46H29.999C13.457,46,0,59.458,0,76v279.998C0,372.541,13.457,386,29.999,386h168.192l-16.895,67.572
			c-0.748,2.988-0.076,6.152,1.818,8.58c1.895,2.428,4.803,3.846,7.883,3.846H321c0.006,0,0.013,0,0.021,0c5.522,0,10-4.476,10-10
			c0-1.068-0.168-2.1-0.479-3.064L313.807,386H482c16.541,0,29.998-13.459,29.998-30.002V76C511.998,59.458,498.541,46,482,46z
			 M203.806,445.998L218.807,386h74.385l15,59.998H203.806z M491.998,355.998c0,5.516-4.484,10.002-9.998,10.002H301h-90.001h-181
			C24.485,366,20,361.514,20,355.998V346h471.998V355.998z M491.998,326H20V76c0-5.514,4.485-10,9.999-10H482
			c5.514,0,9.998,4.486,9.998,10V326z"/>
	</g>
</g>
<g>
	<g>
		<path d="M391.479,286.001h-0.475c-5.523,0-10,4.477-10,10c0,5.522,4.476,10.001,10,10.001h0.475c5.522,0,10-4.478,10-10.001
			S397.001,286.001,391.479,286.001z"/>
	</g>
</g>
<g>
	<g>
		<path d="M462,286.001h-41.437c-5.522,0-10,4.477-10,10c0,5.522,4.478,10.001,10,10.001H462c5.523,0,10-4.478,10-10.001
			S467.523,286.001,462,286.001z"/>
	</g>
</g>
<g>
	<g>
		<path d="M324.945,239.151c-1.876-1.876-4.42-2.93-7.072-2.93H306v-20h32.5c5.522,0,10-4.478,10-10c0-5.523-4.478-10-10-10H306
			V176.22h11.875c2.652,0,5.196-1.054,7.072-2.929l20.623-20.626c3.906-3.905,3.905-10.237,0-14.142
			c-3.905-3.906-10.236-3.905-14.143,0l-17.695,17.696H296h-0.001v-5.001c0-10.117-3.783-19.363-9.999-26.414V105.78
			c0-5.523-4.478-10-10-10c-5.523,0-10,4.477-10,10v6.703c-3.198-0.826-6.55-1.266-10.002-1.266c-3.451,0-6.803,0.44-9.999,1.266
			v-6.703c0-5.523-4.478-10-10-10c-5.522,0-10,4.477-10,10v19.023c-6.216,7.052-9.999,16.298-9.999,26.415v5.001h-17.733
			l-17.696-17.696c-3.905-3.906-10.237-3.906-14.143,0c-3.904,3.904-3.904,10.236,0,14.143l20.625,20.625
			c1.876,1.875,4.42,2.929,7.072,2.929H206v20.001h-32.501c-5.522,0-10,4.477-10,10c0,5.522,4.478,10,10,10H206v20h-11.875
			c-2.652,0-5.196,1.054-7.072,2.929l-20.625,20.626c-3.904,3.904-3.904,10.236,0,14.143c1.953,1.952,4.512,2.928,7.071,2.928
			c2.56,0,5.118-0.976,7.071-2.928l17.696-17.697h8.739c4.645,22.794,24.848,39.998,48.994,39.998s44.35-17.204,48.994-39.998h8.738
			l17.695,17.696c1.953,1.953,4.512,2.929,7.072,2.929c2.559,0,5.117-0.977,7.07-2.928c3.905-3.906,3.906-10.237,0-14.143
			L324.945,239.151z M236,151.219c0-11.028,8.972-20,20-20c11.027,0,19.999,8.972,19.999,20v5.001H236V151.219z M286,246.223
			c0,13.035-8.36,24.148-20,28.277v-68.279c0-5.523-4.477-10-10-10s-10,4.477-10,10V274.5c-11.64-4.129-20-15.242-20-28.277V176.22
			h59.999H286V246.223z"/>
	</g>
</g>
<g>
	<g>
		<path d="M91.437,85.998H49.998c-5.523,0-10,4.478-10,10c0,5.523,4.477,10,10,10h41.439c5.522,0,10-4.477,10-10
			C101.437,90.476,96.959,85.998,91.437,85.998z"/>
	</g>
</g>
<g>
	<g>
		<path d="M120.997,85.998h-0.477c-5.522,0-10,4.478-10,10c0,5.523,4.477,10,10,10h0.477c5.523,0,10-4.477,10-10
			C130.997,90.476,126.52,85.998,120.997,85.998z"/>
	</g>
</g>
<g>
</g>
<g>
</g>
<g>
</g>
<g>
</g>
<g>
</g>
<g>
</g>
<g>
</g>
<g>
</g>
<g>
</g>
<g>
</g>
<g>
</g>
<g>
</g>
<g>
</g>
<g>
</g>
<g>
</g>
</svg>
