<?xml version="1.0" encoding="iso-8859-1"?>
<!-- Generator: Adobe Illustrator 19.0.0, SVG Export Plug-In . SVG Version: 6.00 Build 0)  -->
<svg version="1.1" id="Capa_1" xmlns="http://www.w3.org/2000/svg" xmlns:xlink="http://www.w3.org/1999/xlink" x="0px" y="0px"
	 viewBox="0 0 480.025 480.025" style="enable-background:new 0 0 480.025 480.025;" xml:space="preserve">
<g>
	<g>
		<g>
			<path d="M138.412,72.281c3.853,2.165,8.731,0.797,10.896-3.056c9.376-16.769,23.218-30.611,39.988-39.988
				c50.094-28.01,113.41-10.107,141.42,39.988c1.418,2.523,4.089,4.084,6.984,4.08c1.371-0.001,2.719-0.354,3.914-1.026
				c3.852-2.165,5.219-7.042,3.054-10.894c-10.814-19.324-26.767-35.277-46.091-46.091c-57.8-32.345-130.876-11.709-163.221,46.091
				C133.191,65.237,134.56,70.116,138.412,72.281z"/>
			<path d="M310.02,89.305c1.359,0.004,2.695-0.343,3.88-1.008c0,0,0,0,0,0c3.861-2.147,5.251-7.018,3.104-10.88
				c-8.003-14.459-19.916-26.371-34.375-34.375c-42.521-23.537-96.072-8.147-119.609,34.375c-2.147,3.862-0.758,8.733,3.104,10.88
				s8.733,0.758,10.88-3.104c6.553-11.85,16.315-21.612,28.166-28.166c34.798-19.243,78.607-6.633,97.85,28.166
				C304.433,87.733,307.113,89.308,310.02,89.305z"/>
			<path d="M275.3,101.121c1.401,2.581,4.103,4.187,7.04,4.184c1.336,0.006,2.652-0.327,3.824-0.968
				c3.878-2.113,5.31-6.969,3.2-10.848c-5.198-9.644-13.108-17.554-22.752-22.752c-27.256-14.691-61.261-4.504-75.952,22.752
				c-2.107,3.884-0.668,8.74,3.216,10.848c3.884,2.107,8.74,0.668,10.848-3.216c3.721-6.922,9.396-12.596,16.317-16.317
				C240.531,74.326,264.823,81.632,275.3,101.121z"/>
			<path d="M216.012,120.025c0,13.255,10.745,24,24,24s24-10.745,24-24s-10.745-24-24-24S216.012,106.77,216.012,120.025z
				 M248.012,120.025c0,4.418-3.582,8-8,8s-8-3.582-8-8s3.582-8,8-8S248.012,115.606,248.012,120.025z"/>
			<polygon points="56.012,200.025 424.012,200.025 424.012,271.553 440.012,271.553 440.012,184.025 40.012,184.025 
				40.012,272.025 56.012,272.025 			"/>
			<path d="M472.012,416.025h-8v-248c0-4.418-3.582-8-8-8h-432c-4.418,0-8,3.582-8,8v248h-8c-4.418,0-8,3.582-8,8v16
				c0.026,22.08,17.92,39.974,40,40h400c22.08-0.026,39.974-17.92,40-40v-16C480.012,419.606,476.431,416.025,472.012,416.025z
				 M32.012,176.025h416v240h-144c-1.049,0.005-2.087,0.214-3.056,0.616c-0.972,0.4-1.855,0.987-2.6,1.728L284.7,432.025h-89.376
				l-13.656-13.656c-0.745-0.741-1.628-1.328-2.6-1.728c-0.969-0.402-2.007-0.611-3.056-0.616h-144V176.025z M464.012,440.025
				c0,13.255-10.745,24-24,24h-400c-13.255,0-24-10.745-24-24v-8H172.7l13.656,13.656c1.5,1.5,3.534,2.344,5.656,2.344h96
				c2.122,0,4.156-0.844,5.656-2.344l13.656-13.656h156.688V440.025z"/>
			<polygon points="440.012,320.025 424.012,320.025 424.012,392.025 56.012,392.025 56.012,320.025 40.012,320.025 40.012,408.025 
				440.012,408.025 			"/>
			<path d="M168.012,296.025c0.049,39.744,32.256,71.951,72,72c39.765,0,72-32.236,72-72c0-39.765-32.235-72-72-72
				C200.248,224.025,168.012,256.26,168.012,296.025z M296.012,296.025c0,30.928-25.072,56-56,56c-30.928,0-56-25.072-56-56
				c0.035-30.913,25.087-55.965,56-56C270.94,240.025,296.012,265.097,296.012,296.025z"/>
			<rect x="360.012" y="288.025" width="16" height="16"/>
			<rect x="392.012" y="288.025" width="16" height="16"/>
			<rect x="424.012" y="288.025" width="16" height="16"/>
			<rect x="328.012" y="288.025" width="16" height="16"/>
			<rect x="104.012" y="288.025" width="16" height="16"/>
			<rect x="72.012" y="288.025" width="16" height="16"/>
			<rect x="40.012" y="288.025" width="16" height="16"/>
			<rect x="136.012" y="288.025" width="16" height="16"/>
			<path d="M223.036,267.737c-3.178-3.07-8.242-2.982-11.312,0.196c-2.994,3.1-2.994,8.015,0,11.116l16.976,16.976l-16.976,16.976
				c-3.178,3.069-3.266,8.134-0.196,11.312c3.07,3.178,8.134,3.266,11.312,0.196c0.067-0.064,0.132-0.13,0.196-0.196l16.976-16.976
				l16.976,16.976c3.178,3.07,8.242,2.982,11.312-0.196c2.995-3.1,2.995-8.016,0-11.116l-16.976-16.976l16.976-16.976
				c3.07-3.178,2.982-8.242-0.196-11.312c-3.1-2.995-8.016-2.995-11.116,0l-16.976,16.976L223.036,267.737z"/>
		</g>
	</g>
</g>
<g>
</g>
<g>
</g>
<g>
</g>
<g>
</g>
<g>
</g>
<g>
</g>
<g>
</g>
<g>
</g>
<g>
</g>
<g>
</g>
<g>
</g>
<g>
</g>
<g>
</g>
<g>
</g>
<g>
</g>
</svg>
