<?xml version="1.0" encoding="iso-8859-1"?>
<!-- Generator: Adobe Illustrator 19.1.0, SVG Export Plug-In . SVG Version: 6.00 Build 0)  -->
<svg version="1.1" id="Capa_1" xmlns="http://www.w3.org/2000/svg" xmlns:xlink="http://www.w3.org/1999/xlink" x="0px" y="0px"
	 viewBox="0 0 465 465" style="enable-background:new 0 0 465 465;" xml:space="preserve">
<g>
	<g>
		<path d="M224.6,441c-3.2,0-6.3,1.3-8.5,3.5s-3.5,5.3-3.5,8.5s1.3,6.3,3.5,8.5s5.3,3.5,8.5,3.5s6.3-1.3,8.5-3.5
			c2.2-2.2,3.5-5.3,3.5-8.5s-1.3-6.3-3.5-8.5S227.8,441,224.6,441z"/>
		<path d="M97.1,441c-6.6,0-12,5.4-12,12s5.4,12,12,12s12-5.4,12-12C109.1,446.3,103.7,441,97.1,441z"/>
		<path d="M139.6,441c-6.6,0-12,5.4-12,12s5.4,12,12,12s12-5.4,12-12C151.6,446.3,146.2,441,139.6,441z"/>
		<path d="M182.1,441c-6.6,0-12,5.4-12,12s5.4,12,12,12s12-5.4,12-12C194.1,446.3,188.7,441,182.1,441z"/>
		<path d="M54.5,441c-6.6,0-12,5.4-12,12s5.4,12,12,12s12-5.4,12-12C66.5,446.3,61.2,441,54.5,441z"/>
		<path d="M12,441c-3.2,0-6.3,1.3-8.5,3.5S0,449.8,0,453s1.3,6.3,3.5,8.5S8.8,465,12,465s6.3-1.3,8.5-3.5s3.5-5.3,3.5-8.5
			s-1.3-6.3-3.5-8.5S15.2,441,12,441z"/>
		<path d="M12,420.9c6.6,0,12-5.4,12-12s-5.4-12-12-12s-12,5.4-12,12S5.4,420.9,12,420.9z"/>
		<path d="M12,376.8c6.6,0,12-5.4,12-12s-5.4-12-12-12s-12,5.4-12,12S5.4,376.8,12,376.8z"/>
		<path d="M12,332.7c6.6,0,12-5.4,12-12s-5.4-12-12-12s-12,5.4-12,12C0,327.3,5.4,332.7,12,332.7z"/>
		<path d="M12,112.2c6.6,0,12-5.4,12-12s-5.4-12-12-12s-12,5.4-12,12C0,106.8,5.4,112.2,12,112.2z"/>
		<path d="M12,156.3c6.6,0,12-5.4,12-12s-5.4-12-12-12s-12,5.4-12,12C0,150.9,5.4,156.3,12,156.3z"/>
		<path d="M12,68.1c6.6,0,12-5.4,12-12s-5.4-12-12-12s-12,5.4-12,12C0,62.8,5.4,68.1,12,68.1z"/>
		<path d="M12,244.5c6.6,0,12-5.4,12-12s-5.4-12-12-12s-12,5.4-12,12S5.4,244.5,12,244.5z"/>
		<path d="M12,200.4c6.6,0,12-5.4,12-12s-5.4-12-12-12s-12,5.4-12,12S5.4,200.4,12,200.4z"/>
		<path d="M12,288.6c6.6,0,12-5.4,12-12s-5.4-12-12-12s-12,5.4-12,12S5.4,288.6,12,288.6z"/>
		<path d="M12,24c3.2,0,6.3-1.3,8.5-3.5S24,15.2,24,12s-1.3-6.3-3.5-8.5S15.2,0,12,0S5.7,1.3,3.5,3.5S0,8.8,0,12s1.3,6.3,3.5,8.5
			C5.8,22.8,8.9,24,12,24z"/>
		<path d="M288.6,12c0-6.6-5.4-12-12-12s-12,5.4-12,12s5.4,12,12,12S288.6,18.7,288.6,12z"/>
		<path d="M364.8,24c6.6,0,12-5.4,12-12s-5.4-12-12-12s-12,5.4-12,12C352.8,18.7,358.1,24,364.8,24z"/>
		<path d="M144.3,24c6.6,0,12-5.4,12-12s-5.4-12-12-12s-12,5.4-12,12C132.3,18.7,137.7,24,144.3,24z"/>
		<path d="M408.9,24c6.6,0,12-5.4,12-12s-5.4-12-12-12s-12,5.4-12,12C396.9,18.7,402.2,24,408.9,24z"/>
		<path d="M232.5,24c6.6,0,12-5.4,12-12s-5.4-12-12-12s-12,5.4-12,12C220.5,18.7,225.9,24,232.5,24z"/>
		<path d="M320.7,24c6.6,0,12-5.4,12-12s-5.4-12-12-12s-12,5.4-12,12C308.7,18.7,314.1,24,320.7,24z"/>
		<path d="M188.4,24c6.6,0,12-5.4,12-12s-5.4-12-12-12s-12,5.4-12,12C176.4,18.7,181.8,24,188.4,24z"/>
		<path d="M56.1,0c-6.6,0-12,5.4-12,12s5.4,12,12,12s12-5.4,12-12S62.8,0,56.1,0z"/>
		<path d="M100.2,24c6.6,0,12-5.4,12-12s-5.4-12-12-12s-12,5.4-12,12C88.2,18.7,93.6,24,100.2,24z"/>
		<path d="M453,24c3.2,0,6.3-1.3,8.5-3.5s3.5-5.3,3.5-8.5s-1.3-6.3-3.5-8.5S456.2,0,453,0s-6.3,1.3-8.5,3.5S441,8.8,441,12
			s1.3,6.3,3.5,8.5C446.7,22.8,449.8,24,453,24z"/>
		<path d="M453,42.3c-6.6,0-12,5.4-12,12s5.4,12,12,12s12-5.4,12-12C465,47.7,459.6,42.3,453,42.3z"/>
		<path d="M453,169.2c-6.6,0-12,5.4-12,12s5.4,12,12,12s12-5.4,12-12C465,174.5,459.6,169.2,453,169.2z"/>
		<path d="M453,126.9c-6.6,0-12,5.4-12,12s5.4,12,12,12s12-5.4,12-12S459.6,126.9,453,126.9z"/>
		<path d="M453,84.6c-6.6,0-12,5.4-12,12s5.4,12,12,12s12-5.4,12-12S459.6,84.6,453,84.6z"/>
		<path d="M453,235.4c3.2,0,6.3-1.3,8.5-3.5c2.2-2.2,3.5-5.3,3.5-8.5s-1.3-6.3-3.5-8.5s-5.3-3.5-8.5-3.5s-6.3,1.3-8.5,3.5
			s-3.5,5.3-3.5,8.5s1.3,6.3,3.5,8.5C446.7,234.2,449.8,235.4,453,235.4z"/>
		<path d="M453,279.3H291.3c-6.6,0-12,5.4-12,12V453c0,6.6,5.4,12,12,12H453c6.6,0,12-5.4,12-12V291.3
			C465,284.7,459.6,279.3,453,279.3z M441,441H303.3V303.3H441V441z"/>
		<path d="M122.4,105.5h74.9c6.6,0,12-5.4,12-12s-5.4-12-12-12H93.5c-6.6,0-12,5.4-12,12v103.9c0,6.6,5.4,12,12,12s12-5.4,12-12
			v-74.9l130.9,130.9c2.3,2.3,5.4,3.5,8.5,3.5s6.1-1.2,8.5-3.5c4.7-4.7,4.7-12.3,0-17L122.4,105.5z"/>
	</g>
</g>
<g>
</g>
<g>
</g>
<g>
</g>
<g>
</g>
<g>
</g>
<g>
</g>
<g>
</g>
<g>
</g>
<g>
</g>
<g>
</g>
<g>
</g>
<g>
</g>
<g>
</g>
<g>
</g>
<g>
</g>
</svg>
