<?xml version="1.0" encoding="UTF-8" standalone="no"?>
<!DOCTYPE svg PUBLIC "-//W3C//DTD SVG 1.1//EN" "http://www.w3.org/Graphics/SVG/1.1/DTD/svg11.dtd">
<svg width="100%" height="100%" viewBox="0 0 498 498" version="1.1" xmlns="http://www.w3.org/2000/svg" xmlns:xlink="http://www.w3.org/1999/xlink" xml:space="preserve" xmlns:serif="http://www.serif.com/" style="fill-rule:evenodd;clip-rule:evenodd;stroke-linecap:square;stroke-linejoin:round;stroke-miterlimit:1.5;">
    <g id="Layer1">
        <g transform="matrix(1,0,0,1,48,-66)">
            <rect x="224" y="110.808" width="16" height="16"/>
        </g>
        <g transform="matrix(1,0,0,1,-4,326)">
            <rect x="224" y="110.808" width="16" height="16"/>
        </g>
        <g transform="matrix(1,0,0,1,10.7069,-121)">
            <circle cx="43.5" cy="390.5" r="26.5" style="fill:none;stroke:black;stroke-width:18px;"/>
        </g>
        <g transform="matrix(1,0,0,1,-31.8184,-82)">
            <rect x="224" y="110.808" width="16" height="16"/>
        </g>
        <g transform="matrix(1,0,0,1,8.964,-26.1065)">
            <rect x="224" y="110.808" width="16" height="16"/>
        </g>
        <g transform="matrix(-1,0,0,1,173.707,-144)">
            <circle cx="43.5" cy="390.5" r="26.5" style="fill:none;stroke:black;stroke-width:18px;"/>
        </g>
        <g transform="matrix(-1,0,0,1,493.707,-116.315)">
            <circle cx="43.5" cy="390.5" r="26.5" style="fill:none;stroke:black;stroke-width:18px;"/>
        </g>
        <g transform="matrix(1,0,0,1,330.707,-139.315)">
            <circle cx="43.5" cy="390.5" r="26.5" style="fill:none;stroke:black;stroke-width:18px;"/>
        </g>
        <g transform="matrix(1,0,0,1,32,260.043)">
            <rect x="224" y="110.808" width="16" height="16"/>
        </g>
        <g transform="matrix(1,0,0,1,48,355)">
            <rect x="224" y="110.808" width="16" height="16"/>
        </g>
        <path d="M196,423C196,423 248.772,382.561 307,423" style="fill:none;stroke:black;stroke-width:18px;"/>
    </g>
    <path d="M312,428C312,428 353.284,35.617 291,127L213.414,127C151.13,35.617 192.414,428 192.414,428" style="fill:none;stroke:black;stroke-width:18px;"/>
</svg>
