<?xml version="1.0" encoding="iso-8859-1"?>
<!-- Generator: Adobe Illustrator 19.0.0, SVG Export Plug-In . SVG Version: 6.00 Build 0)  -->
<svg version="1.1" id="Capa_1" xmlns="http://www.w3.org/2000/svg" xmlns:xlink="http://www.w3.org/1999/xlink" x="0px" y="0px"
	 viewBox="0 0 512 512" style="enable-background:new 0 0 512 512;" xml:space="preserve">
<g>
	<g>
		<path d="M429.62,332c-5.52,0-10,4.48-10,10s4.48,10,10,10s10-4.48,10-10S435.14,332,429.62,332z"/>
	</g>
</g>
<g>
	<g>
		<path d="M167.002,316.741c-5.52,0-10,4.48-10,10s4.48,10,10,10s10-4.48,10-10S172.521,316.741,167.002,316.741z"/>
	</g>
</g>
<g>
	<g>
		<path d="M463.064,295.223l-31.157-9.814c1.834-40.188-30.022-73.407-69.907-73.407c-24.136,0-46.521,12.594-59.226,32.701
			l-87.662-27.626c-10.662-3.367-21.803-5.074-33.111-5.074c-2.738,0-5.479,0.104-8.205,0.306
			c-14.946-36.218-47.473-115.039-61.53-149.103l6.089-2.522c5.103-2.112,7.527-7.961,5.416-13.064
			c-2.112-5.103-7.96-7.528-13.063-5.417c-20.741,8.59-22.784,9.436-43.037,17.823L53.677,26.242l16.903-7.001
			c5.102-2.114,7.524-7.964,5.41-13.066c-2.114-5.103-7.964-7.523-13.066-5.411c-17.456,7.23-34.813,14.419-52.268,21.649
			c-5.103,2.113-7.526,7.962-5.413,13.065c2.106,5.087,7.946,7.532,13.065,5.414l16.891-6.996l13.995,33.782L6.176,85.493
			c-5.103,2.113-7.526,7.962-5.413,13.065c2.113,5.104,7.965,7.525,13.065,5.413l6.059-2.509L87.595,265.54
			C77.386,282.575,72.002,301.959,72.002,322c0,30.071,12.134,57.358,31.756,77.235c-14.589,8.889-24.136,24.992-24.136,42.765
			c0,27.57,22.43,50,50,50h139.999c14.205,0,27.789,6.075,37.268,16.668c3.683,4.116,10.004,4.467,14.12,0.784
			s4.467-10.005,0.784-14.12c-13.269-14.828-32.284-23.332-52.172-23.332H129.622c-16.542,0-30-13.458-30-30
			c0-13.183,8.742-24.838,21.133-28.672c17.517,11.786,38.593,18.672,61.247,18.672H442c38.599,0,70-31.402,70-70
			C512,331.294,492.336,304.459,463.064,295.223z M38.365,93.81c12.236-5.067,23.123-9.576,55.425-22.953l8.555,20.729
			l-14.608,6.048c-5.103,2.112-7.527,7.961-5.414,13.064c2.113,5.104,7.963,7.527,13.064,5.414l14.587-6.039l8.556,20.732
			l-14.554,6.028c-5.103,2.113-7.526,7.963-5.413,13.065c2.111,5.095,7.957,7.529,13.066,5.412l14.531-6.018
			c0.046,0.112,32.458,78.652,32.721,79.29l-55.434,22.942L38.365,93.81z M442,412H236.674c9.522-10.624,15.327-24.645,15.327-40
			c0-5.523-4.478-10-10-10s-10,4.477-10,10c0,22.056-17.944,40-40,40h-10c-49.626,0-90-40.374-90-90
			c0-18.118,5.356-35.582,15.491-50.508l22.074-9.136l12.937,31.231c2.102,5.076,7.936,7.534,13.065,5.412
			c5.103-2.114,7.525-7.963,5.411-13.066l-12.934-31.224l27.711-11.469c4.5-1.863,6.911-6.633,5.969-11.234
			c0.092,0,0.183-0.005,0.275-0.005c9.264,0,18.377,1.395,27.094,4.147l85.489,26.942c-1.715,6.112-2.583,12.438-2.583,18.911
			c0,38.598,31.401,70,70,70c5.522,0,10-4.477,10-10c0-5.523-4.478-10-10-10c-27.57,0-50-22.43-50-50c0-27.957,22.803-50,50-50
			c30.059,0,54.669,26.794,49.25,58.822c-0.832,4.923,2.094,9.706,6.855,11.206l38.945,12.268
			c20.904,6.596,34.949,25.766,34.949,47.704C492,389.571,469.57,412,442,412z"/>
	</g>
</g>
<g>
</g>
<g>
</g>
<g>
</g>
<g>
</g>
<g>
</g>
<g>
</g>
<g>
</g>
<g>
</g>
<g>
</g>
<g>
</g>
<g>
</g>
<g>
</g>
<g>
</g>
<g>
</g>
<g>
</g>
</svg>
