<?xml version="1.0" encoding="iso-8859-1"?>
<!-- Generator: Adobe Illustrator 19.0.0, SVG Export Plug-In . SVG Version: 6.00 Build 0)  -->
<svg version="1.1" id="Layer_1" xmlns="http://www.w3.org/2000/svg" xmlns:xlink="http://www.w3.org/1999/xlink" x="0px" y="0px"
	 viewBox="0 0 512 512" style="enable-background:new 0 0 512 512;" xml:space="preserve">
<g>
	<g>
		<path d="M174.545,11.636c-32.582,0-58.182,36.073-58.182,81.455c0,45.382,25.6,81.455,58.182,81.455
			c32.582,0,58.182-36.073,58.182-81.455C232.727,47.709,207.127,11.636,174.545,11.636z M174.545,151.273
			c-18.618,0-34.909-26.764-34.909-58.182c0-31.418,16.291-58.182,34.909-58.182c18.618,0,34.909,26.764,34.909,58.182
			C209.455,124.509,193.164,151.273,174.545,151.273z"/>
	</g>
</g>
<g>
	<g>
		<path d="M337.455,11.636c-32.582,0-58.182,36.073-58.182,81.455c0,45.382,25.6,81.455,58.182,81.455
			c32.582,0,58.182-36.073,58.182-81.455C395.636,47.709,370.036,11.636,337.455,11.636z M337.455,151.273
			c-18.618,0-34.909-26.764-34.909-58.182c0-31.418,16.291-58.182,34.909-58.182c18.618,0,34.909,26.764,34.909,58.182
			C372.364,124.509,356.073,151.273,337.455,151.273z"/>
	</g>
</g>
<g>
	<g>
		<path d="M453.818,162.909c-32.582,0-58.182,36.073-58.182,81.455s25.6,81.455,58.182,81.455c32.582,0,58.182-36.073,58.182-81.455
			S486.4,162.909,453.818,162.909z M453.818,302.545c-18.618,0-34.909-26.764-34.909-58.182s16.291-58.182,34.909-58.182
			s34.909,26.764,34.909,58.182S472.436,302.545,453.818,302.545z"/>
	</g>
</g>
<g>
	<g>
		<path d="M58.182,162.909C25.6,162.909,0,198.982,0,244.364s25.6,81.455,58.182,81.455c32.582,0,58.182-36.073,58.182-81.455
			S90.764,162.909,58.182,162.909z M58.182,302.545c-18.618,0-34.909-26.764-34.909-58.182s16.291-58.182,34.909-58.182
			s34.909,26.764,34.909,58.182S76.8,302.545,58.182,302.545z"/>
	</g>
</g>
<g>
	<g>
		<path d="M394.473,336.291l-22.109-10.473c-15.127-6.982-26.764-22.109-31.418-39.564l-6.982-25.6
			c-10.473-37.236-43.055-62.836-77.964-62.836c-34.909,0-67.491,25.6-76.8,62.836l-6.982,25.6
			c-4.655,17.455-16.291,32.582-31.418,39.564l-22.109,10.473c-30.255,13.964-48.873,45.382-48.873,79.127
			c0,26.764,11.636,51.2,30.255,66.327c17.455,13.964,38.4,19.782,60.509,16.291l33.745-5.818c8.146-1.164,17.455-4.655,25.6-8.146
			c5.818-2.327,8.145-9.309,5.818-15.127s-9.309-8.145-15.127-5.818s-12.8,4.655-19.782,5.818l-33.745,5.818
			C141.964,477.091,128,473.6,115.2,463.127c-13.964-9.309-22.109-27.927-22.109-47.709c0-25.6,13.964-48.873,34.909-58.182
			l22.109-10.473c20.945-10.473,37.236-30.255,44.218-54.691l6.982-25.6c6.982-26.764,29.091-45.382,54.691-45.382
			c25.6,0,47.709,18.618,54.691,45.382l6.982,25.6c6.982,24.436,23.273,44.218,44.218,54.691L384,357.236
			c20.945,10.473,34.909,33.745,34.909,58.182c0,19.782-8.146,37.236-22.109,48.873c-11.636,10.473-26.764,13.964-41.891,11.636
			l-33.745-5.818c-6.982-1.164-13.964-3.491-19.782-5.818c-5.818-2.327-12.8,0-15.127,5.818c-2.327,5.818,0,12.8,5.818,15.127
			c8.146,3.491,16.291,5.818,25.6,8.145l33.745,5.818c4.655,1.164,9.309,1.164,12.8,1.164c17.455,0,33.745-5.818,47.709-17.455
			c18.618-16.291,30.255-40.727,30.255-67.491C442.182,381.673,423.564,350.255,394.473,336.291z"/>
	</g>
</g>
<g>
</g>
<g>
</g>
<g>
</g>
<g>
</g>
<g>
</g>
<g>
</g>
<g>
</g>
<g>
</g>
<g>
</g>
<g>
</g>
<g>
</g>
<g>
</g>
<g>
</g>
<g>
</g>
<g>
</g>
</svg>
