<?xml version="1.0" encoding="iso-8859-1"?>
<!-- Generator: Adobe Illustrator 19.0.0, SVG Export Plug-In . SVG Version: 6.00 Build 0)  -->
<svg version="1.1" id="Capa_1" xmlns="http://www.w3.org/2000/svg" xmlns:xlink="http://www.w3.org/1999/xlink" x="0px" y="0px"
	 viewBox="0 0 512.002 512.002" style="enable-background:new 0 0 512.002 512.002;" xml:space="preserve">
<g>
	<g>
		<path d="M302.001,0c-115.794,0-210,94.206-210,210c0,43.471,13.278,83.898,35.99,117.441L11.68,443.753
			C4.148,451.285,0,461.33,0,472.038s4.148,20.752,11.679,28.284c7.531,7.532,17.576,11.68,28.284,11.68s20.753-4.148,28.285-11.679
			L184.561,384.01c33.543,22.712,73.97,35.99,117.441,35.99c115.794,0,210-94.206,210-210S417.796,0,302.001,0z M54.105,486.18
			c-3.754,3.754-8.776,5.822-14.142,5.822c-5.366,0-10.388-2.067-14.142-5.822C22.067,482.426,20,477.403,20,472.038
			c0-5.366,2.067-10.388,5.822-14.142l85.849-85.85c8.656,10.165,18.118,19.628,28.284,28.284L54.105,486.18z M154.139,386.147
			c-10.228-8.587-19.697-18.057-28.284-28.284l14.191-14.191c8.515,10.309,17.978,19.772,28.284,28.285L154.139,386.147z
			 M302.001,400c-104.766,0-190-85.234-190-190s85.234-190,190-190s190,85.234,190,190S406.768,400,302.001,400z"/>
	</g>
</g>
<g>
	<g>
		<path d="M228.162,62.105c-2.762-4.783-8.878-6.421-13.661-3.66c-17.477,10.09-32.955,23.013-46.003,38.408
			c-3.571,4.213-3.05,10.523,1.163,14.095c1.88,1.593,4.176,2.372,6.461,2.372c2.837,0,5.656-1.201,7.634-3.535
			c11.557-13.637,25.266-25.082,40.746-34.02C229.285,73.004,230.924,66.887,228.162,62.105z"/>
	</g>
</g>
<g>
	<g>
		<path d="M164.224,118.643c-4.783-2.763-10.899-1.127-13.662,3.656l-0.103,0.178c-2.774,4.776-1.151,10.896,3.624,13.67
			c1.581,0.918,3.309,1.354,5.014,1.354c3.446,0,6.8-1.784,8.656-4.978l0.126-0.218
			C170.643,127.522,169.006,121.406,164.224,118.643z"/>
	</g>
</g>
<g>
	<g>
		<path d="M302.001,260c-16.542,0-30,13.458-30,30s13.458,30,30,30s30-13.458,30-30S318.543,260,302.001,260z M302.001,300
			c-5.514,0-10-4.486-10-10c0-5.514,4.486-10,10-10c5.514,0,10,4.486,10,10C312.001,295.514,307.515,300,302.001,300z"/>
	</g>
</g>
<g>
	<g>
		<path d="M302.001,100c-16.542,0-30,13.458-30,30v80c0,16.542,13.458,30,30,30s30-13.458,30-30v-80
			C332.001,113.458,318.543,100,302.001,100z M312.001,210c0,5.514-4.486,10-10,10c-5.514,0-10-4.486-10-10v-80
			c0-5.514,4.486-10,10-10c5.514,0,10,4.486,10,10V210z"/>
	</g>
</g>
<g>
</g>
<g>
</g>
<g>
</g>
<g>
</g>
<g>
</g>
<g>
</g>
<g>
</g>
<g>
</g>
<g>
</g>
<g>
</g>
<g>
</g>
<g>
</g>
<g>
</g>
<g>
</g>
<g>
</g>
</svg>
