<?xml version="1.0" encoding="iso-8859-1"?>
<!-- Generator: Adobe Illustrator 19.0.0, SVG Export Plug-In . SVG Version: 6.00 Build 0)  -->
<svg version="1.1" id="Capa_1" xmlns="http://www.w3.org/2000/svg" xmlns:xlink="http://www.w3.org/1999/xlink" x="0px" y="0px"
	 viewBox="0 0 512 512" style="enable-background:new 0 0 512 512;" xml:space="preserve">
<g>
	<g>
		<path d="M509.07,93.915l-91-90.987C416.195,1.053,413.652,0,411,0H142c-5.522,0-10,4.477-10,10v64.315
			c-36.02,4.933-67.323,26.005-88.253,44.043c-13.606,11.727-24.13,23.218-30.563,30.793C0,164.677,0,167.184,0,169.838
			c0,2.783,0,4.98,13.194,20.47c6.476,7.602,17.03,19.115,30.541,30.797c23.918,20.679,61.335,45.329,103.765,45.329
			c42.488,0,79.872-24.534,103.753-45.115c13.606-11.728,24.13-23.219,30.563-30.793C295,175,295,172.492,295,169.838
			c0-2.783,0-4.981-13.194-20.47c-6.476-7.602-17.03-19.115-30.541-30.797C228.196,98.627,192.569,74.996,152,73.342V20h249v81
			c0,5.523,4.478,10,10,10h81v290.114h-16.39V272.333c0-5.522-4.478-10-10-10c-5.522,0-10,4.478-10,10v128.781h-30V250.958
			c0-0.74-0.086-1.459-0.239-2.153l30.239-30.239V230.5c0,5.523,4.478,10,10,10c5.522,0,10-4.477,10-10v-36.076
			c0-5.523-4.478-10-10-10h-36.076c-5.522,0-10,4.477-10,10c0,5.523,4.478,10,10,10h11.933l-77.829,77.829l-33.443-33.443
			c-1.876-1.875-4.419-2.929-7.071-2.929c-2.652,0-5.195,1.054-7.071,2.929l-74.974,74.973c-3.905,3.905-3.905,10.237,0,14.143
			c1.953,1.952,4.512,2.929,7.071,2.929c2.559,0,5.118-0.977,7.071-2.929l0.389-0.389v63.578h-7.277c-5.522,0-10,4.478-10,10
			c0,5.522,4.478,10,10,10H492V492H152v-30.063c0-5.522-4.478-10-10-10c-5.522,0-10,4.478-10,10V502c0,5.522,4.478,10,10,10h360
			c5.522,0,10-4.478,10-10V100.987C512,98.334,510.946,95.791,509.07,93.915z M235.703,131.584
			c17.897,15.061,31.036,30.528,37.084,38.332c-5.887,7.675-18.984,23.234-37.324,38.573
			c-20.697,17.311-52.759,37.945-87.963,37.945c-35.243,0-67.418-20.851-88.203-38.343c-17.896-15.06-31.035-30.527-37.083-38.331
			c5.886-7.675,18.984-23.234,37.323-38.573c20.697-17.311,52.759-37.945,87.963-37.945
			C182.743,93.242,214.918,114.093,235.703,131.584z M421,91V34.14L477.869,91H421z M305.61,401.114h-30v-83.578l30-30V401.114z
			 M355.61,401.114h-30V272.509l30,30.001V401.114z M405.61,401.114h-30V298.566l30-30V401.114z"/>
	</g>
</g>
<g>
	<g>
		<path d="M147.52,112.848c-31.413,0-56.969,25.557-56.969,56.97c0,31.413,25.556,56.97,56.969,56.97s56.97-25.557,56.97-56.97
			C204.49,138.405,178.933,112.848,147.52,112.848z M147.52,206.788c-20.385,0-36.969-16.584-36.969-36.97
			s16.584-36.97,36.969-36.97s36.97,16.584,36.97,36.97S167.905,206.788,147.52,206.788z"/>
	</g>
</g>
<g>
	<g>
		<path d="M154.569,162.77c-1.859-1.86-4.439-2.93-7.069-2.93s-5.21,1.07-7.07,2.93c-1.86,1.86-2.93,4.43-2.93,7.07
			c0,2.63,1.069,5.21,2.93,7.07c1.86,1.86,4.429,2.93,7.07,2.93c2.63,0,5.21-1.07,7.069-2.93c1.86-1.87,2.931-4.44,2.931-7.07
			S156.43,164.63,154.569,162.77z"/>
	</g>
</g>
<g>
	<g>
		<path d="M126.324,357.114H13.873c-5.522,0-10,4.478-10,10c0,5.522,4.478,10,10,10h112.451c5.522,0,10-4.478,10-10
			C136.324,361.592,131.846,357.114,126.324,357.114z"/>
	</g>
</g>
<g>
	<g>
		<path d="M183.43,357.114h-23.023c-5.522,0-10,4.478-10,10c0,5.522,4.478,10,10,10h23.023c5.522,0,10-4.478,10-10
			C193.43,361.592,188.952,357.114,183.43,357.114z"/>
	</g>
</g>
<g>
	<g>
		<path d="M152.688,313.114H13.873c-5.522,0-10,4.478-10,10c0,5.522,4.478,10,10,10h138.815c5.522,0,10-4.478,10-10
			C162.688,317.592,158.211,313.114,152.688,313.114z"/>
	</g>
</g>
<g>
	<g>
		<path d="M188.97,316.041c-1.86-1.86-4.439-2.92-7.07-2.92c-2.64,0-5.21,1.06-7.069,2.92c-1.86,1.87-2.931,4.439-2.931,7.069
			c0,2.631,1.07,5.21,2.931,7.07c1.859,1.87,4.439,2.93,7.069,2.93c2.63-0.001,5.209-1.06,7.07-2.93c1.86-1.86,2.93-4.439,2.93-7.07
			C191.9,320.48,190.831,317.911,188.97,316.041z"/>
	</g>
</g>
<g>
	<g>
		<path d="M94.271,401.114H13.873c-5.522,0-10,4.478-10,10c0,5.522,4.478,10,10,10H94.27c5.522,0,10-4.478,10-10
			C104.27,405.592,99.793,401.114,94.271,401.114z"/>
	</g>
</g>
<g>
	<g>
		<path d="M133.389,404.04c-1.859-1.86-4.43-2.931-7.07-2.931c-2.63,0-5.21,1.07-7.069,2.931c-1.86,1.87-2.931,4.439-2.931,7.069
			c0,2.641,1.07,5.21,2.931,7.07c1.859,1.87,4.439,2.93,7.069,2.93c2.641,0,5.211-1.06,7.07-2.93c1.871-1.86,2.93-4.439,2.93-7.07
			C136.319,408.479,135.259,405.91,133.389,404.04z"/>
	</g>
</g>
<g>
	<g>
		<path d="M167.479,404.04c-1.87-1.86-4.439-2.931-7.069-2.931s-5.21,1.071-7.07,2.931c-1.87,1.87-2.93,4.439-2.93,7.069
			c0,2.631,1.06,5.21,2.93,7.08c1.86,1.86,4.43,2.92,7.07,2.92c2.63,0,5.21-1.06,7.069-2.92c1.86-1.87,2.931-4.439,2.931-7.08
			C170.41,408.479,169.34,405.899,167.479,404.04z"/>
	</g>
</g>
<g>
	<g>
		<path d="M201.559,404.04c-1.859-1.86-4.439-2.931-7.069-2.931c-2.631,0-5.21,1.07-7.07,2.931c-1.86,1.859-2.93,4.439-2.93,7.069
			c0,2.641,1.069,5.21,2.93,7.07c1.86,1.87,4.439,2.93,7.07,2.93c2.63,0,5.21-1.06,7.069-2.93c1.86-1.86,2.931-4.43,2.931-7.07
			C204.49,408.479,203.42,405.899,201.559,404.04z"/>
	</g>
</g>
<g>
	<g>
		<path d="M357.625,53.19H285c-5.522,0-10,4.477-10,10s4.478,10,10,10h72.625c5.522,0,10-4.477,10-10S363.147,53.19,357.625,53.19z"
			/>
	</g>
</g>
<g>
	<g>
		<path d="M337.797,95.739H285c-5.522,0-10,4.477-10,10s4.478,10,10,10h52.797c5.522,0,10-4.477,10-10
			S343.319,95.739,337.797,95.739z"/>
	</g>
</g>
<g>
</g>
<g>
</g>
<g>
</g>
<g>
</g>
<g>
</g>
<g>
</g>
<g>
</g>
<g>
</g>
<g>
</g>
<g>
</g>
<g>
</g>
<g>
</g>
<g>
</g>
<g>
</g>
<g>
</g>
</svg>
